<svg width="24" height="24" viewBox="0 0 24 24" fill="none" xmlns="http://www.w3.org/2000/svg">
<path fill-rule="evenodd" clip-rule="evenodd" d="M11 24H1V23C1 20.2386 3.23858 18 6 18C8.76142 18 11 20.2386 11 23V24Z" fill="#506478"/>
<path fill-rule="evenodd" clip-rule="evenodd" d="M8 15.0001C8 13.8955 7.10453 13 6 13C4.89547 13 4 13.8955 4 15.0001C4 16.1045 4.89547 17 6 17C7.10453 17 8 16.1045 8 15.0001Z" fill="#506478" fill-opacity="0.6"/>
<path fill-rule="evenodd" clip-rule="evenodd" d="M20 15.0001C20 13.8955 19.1045 13 18 13C16.8955 13 16 13.8955 16 15.0001C16 16.1045 16.8955 17 18 17C19.1045 17 20 16.1045 20 15.0001Z" fill="#506478" fill-opacity="0.6"/>
<path fill-rule="evenodd" clip-rule="evenodd" d="M23 24H13V23C13 20.2386 15.2386 18 18 18C20.7614 18 23 20.2386 23 23V24Z" fill="#506478"/>
<path fill-rule="evenodd" clip-rule="evenodd" d="M14 2.00007C14 0.895503 13.1045 0 12 0C10.8955 0 10 0.895503 10 2.00007C10 3.1045 10.8955 4 12 4C13.1045 4 14 3.1045 14 2.00007Z" fill="#506478" fill-opacity="0.6"/>
<path fill-rule="evenodd" clip-rule="evenodd" d="M17 11H7V10C7 7.23858 9.23858 5 12 5C14.7614 5 17 7.23858 17 10V11Z" fill="#506478"/>
</svg>
