<svg width="160" height="24" viewBox="0 0 160 24" fill="none" xmlns="http://www.w3.org/2000/svg">
<path d="M50.752 12.768C50.752 13.952 50.5653 14.9867 50.192 15.872C49.8293 16.7467 49.2747 17.4293 48.528 17.92C47.7813 18.4107 46.8267 18.656 45.664 18.656C44.5973 18.656 43.7013 18.448 42.976 18.032C42.2613 17.6053 41.7067 17.0133 41.312 16.256C40.928 15.488 40.6933 14.592 40.608 13.568H38.416V18.496H36V7.072H38.416V11.552H40.656C40.8267 10.1227 41.3227 8.992 42.144 8.16C42.9653 7.31733 44.144 6.896 45.68 6.896C46.832 6.896 47.7813 7.14133 48.528 7.632C49.2853 8.112 49.8453 8.79467 50.208 9.68C50.5707 10.5547 50.752 11.584 50.752 12.768ZM43.088 12.768C43.088 13.9627 43.296 14.9067 43.712 15.6C44.128 16.2827 44.7787 16.624 45.664 16.624C46.5813 16.624 47.2427 16.2827 47.648 15.6C48.0533 14.9067 48.256 13.9627 48.256 12.768C48.256 11.5627 48.0533 10.6187 47.648 9.936C47.2427 9.25333 46.592 8.912 45.696 8.912C44.7893 8.912 44.128 9.25333 43.712 9.936C43.296 10.6187 43.088 11.5627 43.088 12.768Z" fill="white"/>
<path d="M65.349 9.76L62.133 13.952L65.653 18.496H63.109L59.781 14.064V18.496H57.557V14.064L54.229 18.496H51.685L55.205 13.952L51.989 9.76H54.453L57.557 14V9.76H59.781V14L62.885 9.76H65.349Z" fill="white"/>
<path d="M69.2858 9.76V13.12H72.6138V9.76H74.9978V18.496H72.6138V14.896H69.2858V18.496H66.9018V9.76H69.2858Z" fill="white"/>
<path d="M77.4955 18.496V9.76H79.8795V13.136H81.0315C82.3648 13.136 83.3515 13.3493 83.9915 13.776C84.6315 14.2027 84.9515 14.848 84.9515 15.712C84.9515 16.5547 84.6528 17.232 84.0555 17.744C83.4582 18.2453 82.4768 18.496 81.1115 18.496H77.4955ZM86.2155 18.496V9.76H88.5995V18.496H86.2155ZM79.8795 16.848H80.9835C81.4528 16.848 81.8315 16.7627 82.1195 16.592C82.4182 16.4213 82.5675 16.1387 82.5675 15.744C82.5675 15.104 82.0288 14.784 80.9515 14.784H79.8795V16.848Z" fill="white"/>
<path d="M93.3933 9.76V13.216C93.3933 13.3973 93.3826 13.6213 93.3613 13.888C93.3506 14.1547 93.3346 14.4267 93.3133 14.704C93.3026 14.9813 93.2866 15.2267 93.2653 15.44C93.2439 15.6533 93.2279 15.8027 93.2173 15.888L97.2493 9.76H100.113V18.496H97.8093V15.008C97.8093 14.72 97.8199 14.4053 97.8413 14.064C97.8626 13.712 97.8839 13.3867 97.9053 13.088C97.9373 12.7787 97.9586 12.544 97.9692 12.384L93.9533 18.496H91.0893V9.76H93.3933ZM99.4572 6C99.4039 6.55467 99.2493 7.04533 98.9933 7.472C98.7373 7.888 98.3373 8.21333 97.7933 8.448C97.2493 8.68267 96.5186 8.8 95.6013 8.8C94.6626 8.8 93.9266 8.688 93.3933 8.464C92.8706 8.22933 92.4973 7.904 92.2733 7.488C92.0493 7.072 91.9159 6.576 91.8733 6H94.0013C94.0546 6.58667 94.2039 6.976 94.4493 7.168C94.6946 7.36 95.0946 7.456 95.6493 7.456C96.1079 7.456 96.4813 7.35467 96.7693 7.152C97.0679 6.93867 97.2439 6.55467 97.2973 6H99.4572Z" fill="white"/>
<path d="M106.562 18.496V7.072H113.778V9.072H108.979V11.456H109.938C111.016 11.456 111.896 11.6053 112.578 11.904C113.272 12.2027 113.784 12.6133 114.115 13.136C114.445 13.6587 114.61 14.256 114.61 14.928C114.61 16.0587 114.232 16.9387 113.474 17.568C112.728 18.1867 111.533 18.496 109.89 18.496H106.562ZM108.979 16.512H109.794C110.53 16.512 111.106 16.3947 111.522 16.16C111.949 15.9253 112.162 15.5147 112.162 14.928C112.162 14.32 111.933 13.92 111.474 13.728C111.016 13.536 110.392 13.44 109.603 13.44H108.979V16.512Z" fill="white"/>
<path d="M120.158 9.584C121.331 9.584 122.227 9.84 122.846 10.352C123.475 10.8533 123.79 11.6267 123.79 12.672V18.496H122.126L121.662 17.312H121.598C121.224 17.7813 120.83 18.1227 120.414 18.336C119.998 18.5493 119.427 18.656 118.702 18.656C117.923 18.656 117.278 18.432 116.766 17.984C116.254 17.5253 115.998 16.8267 115.998 15.888C115.998 14.96 116.323 14.2773 116.974 13.84C117.624 13.392 118.6 13.1467 119.902 13.104L121.422 13.056V12.672C121.422 12.2133 121.299 11.8773 121.054 11.664C120.819 11.4507 120.488 11.344 120.062 11.344C119.635 11.344 119.219 11.408 118.814 11.536C118.408 11.6533 118.003 11.8027 117.598 11.984L116.814 10.368C117.283 10.1227 117.8 9.93067 118.366 9.792C118.942 9.65333 119.539 9.584 120.158 9.584ZM121.422 14.448L120.494 14.48C119.726 14.5013 119.192 14.64 118.894 14.896C118.595 15.152 118.446 15.488 118.446 15.904C118.446 16.2667 118.552 16.528 118.766 16.688C118.979 16.8373 119.256 16.912 119.598 16.912C120.11 16.912 120.542 16.7627 120.894 16.464C121.246 16.1547 121.422 15.7227 121.422 15.168V14.448Z" fill="white"/>
<path d="M128.614 9.76V13.12H131.942V9.76H134.326V18.496H131.942V14.896H128.614V18.496H126.23V9.76H128.614Z" fill="white"/>
<path d="M142.552 9.76H145.176L141.72 13.952L145.48 18.496H142.776L139.208 14.064V18.496H136.824V9.76H139.208V14L142.552 9.76Z" fill="white"/>
<path d="M27 9C27 12.866 23.866 16 20 16C16.134 16 13 12.866 13 9C13 5.13401 16.134 2 20 2C23.866 2 27 5.13401 27 9Z" fill="#FF7628"/>
<path d="M27 22.5C27 23.3284 23.866 24 20 24C16.134 24 13 23.3284 13 22.5C13 21.6716 16.134 21 20 21C23.866 21 27 21.6716 27 22.5Z" fill="#FF7628"/>
</svg>
