<svg width="205" height="21" viewBox="0 0 205 21" fill="none" xmlns="http://www.w3.org/2000/svg">
<path fill-rule="evenodd" clip-rule="evenodd" d="M9.39433 9.16035C9.39433 11.6618 7.61814 13.8589 4.44147 13.8589H2.46033V19.7744H0.000976562V4.36035H4.40732C7.20824 4.36035 9.39433 6.32092 9.39433 9.16035ZM81.2621 19.7406V18.5913C81.2621 18.5913 80.0665 20.0449 77.9488 20.0449C75.182 20.0449 72.3127 18.0505 72.3127 14.3322C72.3127 10.1744 75.3528 8.5857 77.778 8.5857C79.9299 8.5857 81.2279 9.97162 81.2279 9.97162V8.85613H83.5165V19.7406H81.2621ZM25.8925 12.9125H31.1869V8.88993H33.5438V19.7744H31.1869V15.4139H25.8925V19.7744H23.5356V8.88993H25.8925V12.9125ZM78.1195 17.5096C75.7285 17.5096 74.6355 15.7519 74.6355 14.3322C74.6355 12.473 76.0701 11.0871 78.1195 11.0871C79.3492 11.0871 80.4423 11.5604 81.1937 12.3716V16.2251C81.1937 16.2251 80.2373 17.5096 78.1195 17.5096ZM89.3574 12.9125H94.6519V8.88993H97.0087V19.7744H94.6519V15.4139H89.3574V19.7744H87.0005V8.88993H89.3574V12.9125ZM114.702 19.7744H111.662V16.766H114.702V19.7744ZM4.71474 11.3237H2.39202V7.06458H4.74889C5.36373 7.06458 5.91025 7.26739 6.28599 7.67303C6.66172 8.07866 6.86667 8.5857 6.86667 9.19416C6.86667 9.83641 6.66172 10.3773 6.25183 10.7491C5.84194 11.1209 5.32957 11.3237 4.71474 11.3237ZM54.5508 20.0787C51.8865 20.0787 48.8806 18.0843 48.8806 14.3322C48.8806 11.0533 51.3741 8.61951 54.5849 8.61951C56.8393 8.61951 58.3423 9.97162 58.6155 10.4787L57.9665 12.4054C57.9665 12.4054 56.5661 11.1209 54.9265 11.1209C52.3647 11.1209 51.2716 12.8787 51.2716 14.3322C51.2716 16.3266 52.8429 17.5773 54.9607 17.5773C56.4978 17.5773 57.8299 16.6646 58.1373 16.3266L58.8205 18.2533C58.817 18.2533 58.7987 18.2718 58.7658 18.305C58.4714 18.6021 57.0084 20.0787 54.5508 20.0787ZM60.665 14.3322C60.665 18.0843 63.6709 20.0787 66.3352 20.0787C69.0678 20.0787 70.6049 18.2533 70.6049 18.2533L69.9217 16.3266C69.6143 16.6646 68.2821 17.5773 66.745 17.5773C64.6273 17.5773 63.056 16.3266 63.056 14.3322C63.056 12.8787 64.1491 11.1209 66.7109 11.1209C68.3505 11.1209 69.7509 12.4054 69.7509 12.4054L70.3999 10.4787C70.1267 9.97162 68.6237 8.61951 66.3693 8.61951C63.1585 8.61951 60.665 11.0533 60.665 14.3322ZM105.036 20.0787C102.371 20.0787 99.3656 18.0843 99.3656 14.3322C99.3656 11.0533 101.859 8.61951 105.07 8.61951C107.324 8.61951 108.827 9.97162 109.101 10.4787L108.452 12.4054C108.452 12.4054 107.051 11.1209 105.412 11.1209C102.85 11.1209 101.757 12.8787 101.757 14.3322C101.757 16.3266 103.328 17.5773 105.446 17.5773C106.983 17.5773 108.315 16.6646 108.622 16.3266L109.305 18.2533C109.305 18.2533 107.803 20.0787 105.036 20.0787ZM45.499 16.2927C45.1916 16.6984 44.0302 17.7463 42.0832 17.7463C39.6922 17.7463 38.7699 16.0223 38.6333 15.1435H46.9336C46.9678 14.9068 47.0019 14.6364 47.0019 14.2984C47.0019 11.2561 44.9866 8.65331 41.7417 8.65331C38.0526 8.65331 36.2423 11.7294 36.2423 14.3998C36.2423 17.9153 38.6675 20.1125 42.0491 20.1125C44.4743 20.1125 46.0455 18.3885 46.1821 18.1181L45.499 16.2927ZM41.6392 11.1209C39.5214 11.1209 38.7699 12.6082 38.6675 13.2505H44.6451C44.3718 12.1688 43.3471 11.1209 41.6392 11.1209ZM19.4709 16.2927C19.1634 16.6984 18.0021 17.7463 16.0551 17.7463C13.6982 17.7463 12.7418 16.0223 12.6393 15.1435H20.9055C20.9396 14.9068 20.9738 14.6364 20.9738 14.2984C20.9738 11.2561 18.9585 8.65331 15.7135 8.65331C12.0245 8.65331 10.2141 11.7294 10.2141 14.3998C10.2141 17.9153 12.6393 20.1125 16.0209 20.1125C18.4461 20.1125 20.0174 18.3885 20.154 18.1181L19.4709 16.2927ZM15.611 11.1209C13.4933 11.1209 12.7418 12.6082 12.6393 13.2505H18.6169C18.3437 12.1688 17.3531 11.1209 15.611 11.1209ZM178.641 16.816C177.729 18.128 176.289 18.832 174.689 18.832C172.049 18.832 170.369 16.896 170.369 14.256C170.369 11.68 171.937 9.68 174.689 9.68C176.305 9.68 177.633 10.352 178.561 11.68L178.929 10.544C178.241 9.072 176.161 8.336 174.657 8.336C171.361 8.336 169.121 11.008 169.121 14.256C169.121 17.424 171.297 20.176 174.657 20.176C176.257 20.176 178.305 19.424 179.009 17.92L178.641 16.816ZM134.473 20H135.721V9.84H142.201V20H143.433V8.512H134.473V20ZM147.377 20H153.441V18.672H148.625V14.752H152.961V13.424H148.625V9.84H153.441V8.512H147.377V20ZM158.121 20H156.873V8.512H158.121V13.424H164.729V8.512H165.977V20H164.729V14.752H158.121V20ZM189.865 8.512H191.289V20H190.041V10.432L183.513 20H182.089V8.512H183.337V18.128L189.865 8.512ZM204.433 20H203.185V10.432L196.657 20H195.233V8.512H196.481V18.128L203.009 8.512H204.433V20Z" fill="white"/>
<path d="M120.031 15.4141L111.662 0H128.365L120.031 15.4141Z" fill="#CEDC00"/>
</svg>
