<svg width="24" height="24" viewBox="0 0 24 24" fill="none" xmlns="http://www.w3.org/2000/svg">
<path fill-rule="evenodd" clip-rule="evenodd" d="M5 10L0 16H3V17C3 20.866 6.13401 24 10 24H14C17.866 24 21 20.866 21 17H17C17 18.6569 15.6569 20 14 20H10C8.34315 20 7 18.6569 7 17V16H10L5 10Z" fill="#506478"/>
<path fill-rule="evenodd" clip-rule="evenodd" d="M10 4C8.34315 4 7 5.34315 7 7H3C3 3.13401 6.13401 0 10 0H14C17.866 0 21 3.13401 21 7V10H24L19 16L14 10H17V7C17 5.34315 15.6569 4 14 4H10Z" fill="#506478" fill-opacity="0.3"/>
</svg>
