<svg width="24" height="24" viewBox="0 0 24 24" fill="none" xmlns="http://www.w3.org/2000/svg">
<path d="M6 3H4V5.17071C4.31278 5.06015 4.64936 5 5 5C5.35064 5 5.68722 5.06015 6 5.17071V3Z" fill="#506478" fill-opacity="0.3"/>
<path d="M6 10.8293C5.68722 10.9398 5.35064 11 5 11C4.64936 11 4.31278 10.9398 4 10.8293V21H6V10.8293Z" fill="#506478" fill-opacity="0.3"/>
<path d="M13 3H11V13.1707C11.3128 13.0602 11.6494 13 12 13C12.3506 13 12.6872 13.0602 13 13.1707V3Z" fill="#506478" fill-opacity="0.3"/>
<path d="M13 18.8293C12.6872 18.9398 12.3506 19 12 19C11.6494 19 11.3128 18.9398 11 18.8293V21H13V18.8293Z" fill="#506478" fill-opacity="0.3"/>
<path d="M20 3H18V7.17071C18.3128 7.06015 18.6494 7 19 7C19.3506 7 19.6872 7.06015 20 7.17071V3Z" fill="#506478" fill-opacity="0.3"/>
<path d="M20 12.8293C19.6872 12.9398 19.3506 13 19 13C18.6494 13 18.3128 12.9398 18 12.8293V21H20V12.8293Z" fill="#506478" fill-opacity="0.3"/>
<circle cx="5" cy="8" r="3" fill="#506478" fill-opacity="0.6"/>
<circle cx="12" cy="16" r="3" fill="#506478"/>
<circle cx="19" cy="10" r="3" fill="#506478" fill-opacity="0.3"/>
</svg>
