<svg width="24" height="24" viewBox="0 0 24 24" fill="none" xmlns="http://www.w3.org/2000/svg">
<path fill-rule="evenodd" clip-rule="evenodd" d="M4 24H9V17H4V24Z" fill="#506478" fill-opacity="0.6"/>
<path fill-rule="evenodd" clip-rule="evenodd" d="M12 17H1V12.5C1 9.46243 3.46243 7 6.5 7C9.53757 7 12 9.46243 12 12.5V17Z" fill="#506478"/>
<path fill-rule="evenodd" clip-rule="evenodd" d="M23 20H14V16.5C14 14.0147 16.0147 12 18.5 12C20.9853 12 23 14.0147 23 16.5V20Z" fill="#506478"/>
<path fill-rule="evenodd" clip-rule="evenodd" d="M16 24H21V20H16V24Z" fill="#506478" fill-opacity="0.6"/>
<path fill-rule="evenodd" clip-rule="evenodd" d="M9 2.50008C9 1.11938 7.88066 0 6.5 0C5.11934 0 4 1.11938 4 2.50008C4 3.88062 5.11934 5 6.5 5C7.88066 5 9 3.88062 9 2.50008Z" fill="#506478" fill-opacity="0.3"/>
<path fill-rule="evenodd" clip-rule="evenodd" d="M21 7.50008C21 6.11938 19.8807 5 18.5 5C17.1193 5 16 6.11938 16 7.50008C16 8.88062 17.1193 10 18.5 10C19.8807 10 21 8.88062 21 7.50008Z" fill="#506478" fill-opacity="0.3"/>
</svg>
