<svg width="132" height="24" viewBox="0 0 132 24" fill="none" xmlns="http://www.w3.org/2000/svg">
<g clip-path="url(#clip0_2086_543)">
<path d="M14 8C14 11.866 10.866 15 7 15C3.13401 15 0 11.866 0 8C0 4.13401 3.13401 1 7 1C10.866 1 14 4.13401 14 8Z" fill="#FF7628"/>
<path d="M14 21.5C14 22.3284 10.866 23 7 23C3.13401 23 0 22.3284 0 21.5C0 20.6716 3.13401 20 7 20C10.866 20 14 20.6716 14 21.5Z" fill="#FF7628"/>
<path d="M37.752 11.768C37.752 12.952 37.5653 13.9867 37.192 14.872C36.8293 15.7467 36.2747 16.4293 35.528 16.92C34.7813 17.4107 33.8267 17.656 32.664 17.656C31.5973 17.656 30.7013 17.448 29.976 17.032C29.2613 16.6053 28.7067 16.0133 28.312 15.256C27.928 14.488 27.6933 13.592 27.608 12.568H25.416V17.496H23V6.072H25.416V10.552H27.656C27.8267 9.12267 28.3227 7.992 29.144 7.16C29.9653 6.31733 31.144 5.896 32.68 5.896C33.832 5.896 34.7813 6.14133 35.528 6.632C36.2853 7.112 36.8453 7.79467 37.208 8.68C37.5707 9.55467 37.752 10.584 37.752 11.768ZM30.088 11.768C30.088 12.9627 30.296 13.9067 30.712 14.6C31.128 15.2827 31.7787 15.624 32.664 15.624C33.5813 15.624 34.2427 15.2827 34.648 14.6C35.0533 13.9067 35.256 12.9627 35.256 11.768C35.256 10.5627 35.0533 9.61867 34.648 8.936C34.2427 8.25333 33.592 7.912 32.696 7.912C31.7893 7.912 31.128 8.25333 30.712 8.936C30.296 9.61867 30.088 10.5627 30.088 11.768Z" fill="#2F2727"/>
<path d="M52.349 8.76L49.133 12.952L52.653 17.496H50.109L46.781 13.064V17.496H44.557V13.064L41.229 17.496H38.685L42.205 12.952L38.989 8.76H41.453L44.557 13V8.76H46.781V13L49.885 8.76H52.349Z" fill="#2F2727"/>
<path d="M56.2858 8.76V12.12H59.6138V8.76H61.9978V17.496H59.6138V13.896H56.2858V17.496H53.9018V8.76H56.2858Z" fill="#2F2727"/>
<path d="M64.4955 17.496V8.76H66.8795V12.136H68.0315C69.3648 12.136 70.3515 12.3493 70.9915 12.776C71.6315 13.2027 71.9515 13.848 71.9515 14.712C71.9515 15.5547 71.6528 16.232 71.0555 16.744C70.4582 17.2453 69.4768 17.496 68.1115 17.496H64.4955ZM73.2155 17.496V8.76H75.5995V17.496H73.2155ZM66.8795 15.848H67.9835C68.4528 15.848 68.8315 15.7627 69.1195 15.592C69.4182 15.4213 69.5675 15.1387 69.5675 14.744C69.5675 14.104 69.0288 13.784 67.9515 13.784H66.8795V15.848Z" fill="#2F2727"/>
<path d="M80.3933 8.76V12.216C80.3933 12.3973 80.3826 12.6213 80.3613 12.888C80.3506 13.1547 80.3346 13.4267 80.3133 13.704C80.3026 13.9813 80.2866 14.2267 80.2653 14.44C80.2439 14.6533 80.2279 14.8027 80.2173 14.888L84.2493 8.76H87.1133V17.496H84.8093V14.008C84.8093 13.72 84.8199 13.4053 84.8413 13.064C84.8626 12.712 84.8839 12.3867 84.9053 12.088C84.9373 11.7787 84.9586 11.544 84.9692 11.384L80.9533 17.496H78.0893V8.76H80.3933ZM86.4572 5C86.4039 5.55467 86.2493 6.04533 85.9933 6.472C85.7373 6.888 85.3373 7.21333 84.7933 7.448C84.2493 7.68267 83.5186 7.8 82.6013 7.8C81.6626 7.8 80.9266 7.688 80.3933 7.464C79.8706 7.22933 79.4973 6.904 79.2733 6.488C79.0493 6.072 78.9159 5.576 78.8733 5H81.0013C81.0546 5.58667 81.2039 5.976 81.4493 6.168C81.6946 6.36 82.0946 6.456 82.6493 6.456C83.1079 6.456 83.4813 6.35467 83.7693 6.152C84.0679 5.93867 84.2439 5.55467 84.2973 5H86.4572Z" fill="#2F2727"/>
<path d="M93.5625 17.496V6.072H100.778V8.072H95.9785V10.456H96.9385C98.0158 10.456 98.8958 10.6053 99.5785 10.904C100.272 11.2027 100.784 11.6133 101.115 12.136C101.445 12.6587 101.61 13.256 101.61 13.928C101.61 15.0587 101.232 15.9387 100.474 16.568C99.7278 17.1867 98.5332 17.496 96.8905 17.496H93.5625ZM95.9785 15.512H96.7945C97.5305 15.512 98.1065 15.3947 98.5225 15.16C98.9492 14.9253 99.1625 14.5147 99.1625 13.928C99.1625 13.32 98.9332 12.92 98.4745 12.728C98.0158 12.536 97.3918 12.44 96.6025 12.44H95.9785V15.512Z" fill="#2F2727"/>
<path d="M107.158 8.584C108.331 8.584 109.227 8.84 109.846 9.352C110.475 9.85333 110.79 10.6267 110.79 11.672V17.496H109.126L108.662 16.312H108.598C108.224 16.7813 107.83 17.1227 107.414 17.336C106.998 17.5493 106.427 17.656 105.702 17.656C104.923 17.656 104.278 17.432 103.766 16.984C103.254 16.5253 102.998 15.8267 102.998 14.888C102.998 13.96 103.323 13.2773 103.974 12.84C104.624 12.392 105.6 12.1467 106.902 12.104L108.422 12.056V11.672C108.422 11.2133 108.299 10.8773 108.054 10.664C107.819 10.4507 107.488 10.344 107.062 10.344C106.635 10.344 106.219 10.408 105.814 10.536C105.408 10.6533 105.003 10.8027 104.598 10.984L103.814 9.368C104.283 9.12267 104.8 8.93067 105.366 8.792C105.942 8.65333 106.539 8.584 107.158 8.584ZM108.422 13.448L107.494 13.48C106.726 13.5013 106.192 13.64 105.894 13.896C105.595 14.152 105.446 14.488 105.446 14.904C105.446 15.2667 105.552 15.528 105.766 15.688C105.979 15.8373 106.256 15.912 106.598 15.912C107.11 15.912 107.542 15.7627 107.894 15.464C108.246 15.1547 108.422 14.7227 108.422 14.168V13.448Z" fill="#2F2727"/>
<path d="M115.614 8.76V12.12H118.942V8.76H121.326V17.496H118.942V13.896H115.614V17.496H113.23V8.76H115.614Z" fill="#2F2727"/>
<path d="M129.552 8.76H132.176L128.72 12.952L132.48 17.496H129.776L126.208 13.064V17.496H123.824V8.76H126.208V13L129.552 8.76Z" fill="#2F2727"/>
</g>
<defs>
<clipPath id="clip0_2086_543">
<rect width="132" height="24" fill="white"/>
</clipPath>
</defs>
</svg>
