<svg width="291" height="29" viewBox="0 0 291 29" fill="none" xmlns="http://www.w3.org/2000/svg">
<path fill-rule="evenodd" clip-rule="evenodd" d="M12.866 26.6807C6.16272 26.6807 0.675737 21.1925 0.675737 14.4543C0.675737 7.71622 6.16272 2.22793 12.866 2.22793C19.5694 2.22793 25.0563 7.71622 25.0563 14.4543C25.0563 21.1925 19.5694 26.6807 12.866 26.6807ZM13.2985 1.54868C6.21678 1.54868 0.432472 7.33585 0.432472 14.4543C0.432472 21.5728 6.21678 27.36 13.2985 27.36C20.3802 27.36 26.1646 21.5728 26.1646 14.4543C26.1646 7.33585 20.3802 1.54868 13.2985 1.54868ZM13.9202 28.1751C6.40599 28.1751 0.270295 22.0347 0.270295 14.4815C0.270295 6.95547 6.40599 0.787925 13.9202 0.787925C21.4344 0.787925 27.5701 6.9283 27.5701 14.4815C27.5701 22.0347 21.4344 28.1751 13.9202 28.1751ZM14.3526 0C6.43302 0 0 6.46642 0 14.4C0 22.3336 6.43302 28.8 14.3526 28.8C22.2453 28.8 28.7053 22.3336 28.7053 14.4C28.7053 6.46642 22.2453 0 14.3526 0ZM13.4607 13.2317C12.785 13.2317 12.2443 13.7751 12.2443 14.4543C12.2443 15.1336 12.785 15.677 13.4607 15.677C14.1364 15.677 14.677 15.1336 14.677 14.4543C14.677 13.7751 14.1364 13.2317 13.4607 13.2317ZM11.8659 25.2407C5.94649 25.2407 1.13524 20.4046 1.13524 14.4543C1.13524 8.50416 5.97352 3.66793 11.893 3.66793C17.8124 3.66793 22.6507 8.50416 22.6507 14.4543C22.6237 20.4046 17.7854 25.2407 11.8659 25.2407ZM12.2714 2.98868C5.97352 2.98868 0.837912 8.15096 0.837912 14.4543C0.837912 20.7849 5.97352 25.92 12.2714 25.92C18.5693 25.92 23.7049 20.7578 23.7049 14.4543C23.7049 8.15096 18.5693 2.98868 12.2714 2.98868ZM15.0825 17.9049C13.1904 17.9049 11.6497 16.3562 11.6497 14.4543C11.6497 12.5525 13.1904 11.0038 15.0825 11.0038C16.9745 11.0038 18.5152 12.5525 18.5152 14.4543C18.5152 16.3562 16.9745 17.9049 15.0825 17.9049ZM15.515 10.2702C13.2445 10.2702 11.3524 12.1449 11.3524 14.4543C11.3524 16.7638 13.2174 18.6385 15.515 18.6385C17.8124 18.6385 19.6774 16.7638 19.6774 14.4543C19.6774 12.1449 17.8124 10.2702 15.515 10.2702ZM14.9743 19.3721C12.2714 19.3721 10.082 17.1714 10.082 14.4543C10.082 11.7374 12.2714 9.53664 14.9743 9.53664C17.6773 9.53664 19.8666 11.7374 19.8666 14.4543C19.8666 17.1714 17.6502 19.3721 14.9743 19.3721ZM14.4338 8.83016C11.3524 8.83016 8.83864 11.357 8.83864 14.4543C8.83864 17.5517 11.3524 20.0785 14.4338 20.0785C17.5151 20.0785 20.0289 17.5517 20.0289 14.4543C20.0289 11.357 17.5151 8.83016 14.4338 8.83016ZM13.8121 20.8664C10.2982 20.8664 7.43311 17.9864 7.43311 14.4543C7.43311 10.9222 10.2982 8.04224 13.8121 8.04224C17.3259 8.04224 20.191 10.9222 20.191 14.4543C20.191 17.9864 17.3259 20.8664 13.8121 20.8664ZM13.3255 7.33585C9.43328 7.33585 6.24381 10.5419 6.24381 14.4543C6.24381 18.3668 9.43328 21.5728 13.3255 21.5728C17.2178 21.5728 20.4073 18.3668 20.4073 14.4543C20.4073 10.5419 17.2448 7.33585 13.3255 7.33585ZM14.0013 16.4378C12.9201 16.4378 12.0282 15.5411 12.0282 14.4543C12.0282 13.3675 12.9201 12.471 14.0013 12.471C15.0825 12.471 15.9744 13.3675 15.9744 14.4543C15.9744 15.5411 15.0825 16.4378 14.0013 16.4378ZM14.5148 11.7374C13.0282 11.7374 11.8119 12.96 11.8119 14.4543C11.8119 15.9487 13.0282 17.1714 14.5148 17.1714C16.0014 17.1714 17.2178 15.9487 17.2178 14.4543C17.2178 12.96 16.0014 11.7374 14.5148 11.7374ZM12.7579 22.3064C8.46024 22.3064 4.9464 18.7743 4.9464 14.4543C4.9464 10.1343 8.46024 6.60226 12.7579 6.60226C17.0556 6.60226 20.5694 10.1343 20.5694 14.4543C20.5965 18.7743 17.0826 22.3064 12.7579 22.3064ZM12.2984 5.89585C7.59529 5.89585 3.78413 9.7268 3.78413 14.4543C3.78413 19.1547 7.62231 23.0128 12.2984 23.0128C16.9745 23.0128 20.8127 19.1547 20.8127 14.4543C20.8127 9.754 16.9745 5.89585 12.2984 5.89585ZM11.7038 23.7736C6.59519 23.7736 2.43266 19.5894 2.43266 14.4543C2.43266 9.31928 6.59519 5.1351 11.7038 5.1351C16.8123 5.1351 20.9749 9.31928 20.9749 14.4543C20.9749 19.5894 16.8123 23.7736 11.7038 23.7736ZM11.3254 4.34717C5.81134 4.34717 1.29742 8.88456 1.29742 14.4272C1.29742 19.9698 5.81134 24.5072 11.3254 24.5072C16.8664 24.5072 21.3533 19.9698 21.3533 14.4272C21.3803 8.88456 16.8664 4.34717 11.3254 4.34717Z" fill="#96A0AA"/>
<path d="M42.8608 19.2H41.184V15.6928H37.0624V19.2H35.3856V10.7008H37.0624V14.1952H41.184V10.7008H42.8608V19.2ZM49.1876 10.7008L52.8868 19.2H51.1076L50.2756 17.3184H46.3972L45.5652 19.2H43.85L47.5492 10.7008H49.1876ZM48.3428 12.928L47.0628 15.8208H49.61L48.3428 12.928ZM61.2203 19.2H59.5435V12.1984H55.5499V19.2H53.8731V10.7008H61.2203V19.2ZM69.4192 12.9664H68.7664V16.7808H69.4192C69.9824 16.7808 70.4603 16.6229 70.8528 16.3072C71.2539 15.9829 71.4544 15.505 71.4544 14.8736C71.4544 14.2421 71.2539 13.7685 70.8528 13.4528C70.4603 13.1285 69.9824 12.9664 69.4192 12.9664ZM67.0896 16.7808V12.9664H66.4368C65.8736 12.9664 65.3915 13.1285 64.9904 13.4528C64.5979 13.7685 64.4016 14.2421 64.4016 14.8736C64.4016 15.505 64.5979 15.9829 64.9904 16.3072C65.3915 16.6229 65.8736 16.7808 66.4368 16.7808H67.0896ZM67.0896 11.4688V10.5088H68.7664V11.4688H69.4192C70.4944 11.4688 71.3819 11.7802 72.0816 12.4032C72.7813 13.0176 73.1312 13.841 73.1312 14.8736C73.1312 15.9061 72.7813 16.7338 72.0816 17.3568C71.3819 17.9712 70.4944 18.2784 69.4192 18.2784H68.7664V19.4048H67.0896V18.2784H66.4368C65.3616 18.2784 64.4741 17.9712 63.7744 17.3568C63.0747 16.7338 62.7248 15.9061 62.7248 14.8736C62.7248 13.841 63.0747 13.0176 63.7744 12.4032C64.4741 11.7802 65.3616 11.4688 66.4368 11.4688H67.0896Z" fill="#96A0AA"/>
<path fill-rule="evenodd" clip-rule="evenodd" d="M226.393 5V5.49325H228.254V10.6538H230.961V5.49325H234.006C235.408 5.49325 236.399 5.93717 237.076 6.94833C237.463 7.54022 237.85 8.72402 237.995 9.66119H238.575L238.309 5H226.393ZM243.043 18.5078L244.66 16.2244L241.213 11.2059H239.952V10.8015H245.112V11.2059H244.042L246.467 14.6784L247.537 13.1086C247.965 12.4664 248.108 12.181 248.108 11.9432C248.108 11.7053 247.941 11.1583 246.847 11.2059V10.8015H250.961V11.2059H250.604C249.759 11.2059 248.997 11.9552 248.591 12.4803L248.512 12.5854L246.681 15.1303L250.438 20.5295H251.508V20.9338H246.253V20.5295H247.632L244.898 16.6526L243.4 18.7218C242.996 19.2927 242.972 19.6495 243.043 19.8873C243.138 20.1965 243.566 20.5295 244.089 20.5295H244.28V20.9338H239.952V20.5295H240.143C240.475 20.5295 240.951 20.4581 241.498 20.1014C241.973 19.7922 242.473 19.3165 243.043 18.5078ZM253.6 25.5957V11.2059H252.102V10.8015H254.456C254.924 10.8015 255.144 10.8015 255.714 10.7163L255.93 10.6826V12.1097C256.199 11.5512 256.575 11.2266 256.747 11.0889L256.856 11.0052C257.171 10.7772 257.703 10.5399 258.45 10.5399C259.734 10.5399 261.137 11.1821 262.088 12.5854C262.706 13.4892 263.087 14.6546 263.087 15.9152C263.087 17.1758 262.706 18.3889 261.755 19.5305C260.852 20.6008 259.806 21.1955 258.403 21.1955C257.975 21.1955 257.357 21.1241 256.905 20.9101C256.524 20.7198 256.168 20.3868 255.93 20.0538V25.5957H257.428V26H252.102V25.5957H253.6ZM260.067 19.4354C260.305 18.9121 260.424 17.8656 260.424 17.2472V14.0838C260.424 13.846 260.4 12.6805 259.972 11.9194C259.663 11.3723 259.14 10.968 258.284 10.968C257.428 10.968 256.81 11.3723 256.358 12.0621C256.001 12.6092 255.93 13.0611 255.93 13.513V18.817C255.93 19.2689 256.215 19.8635 256.596 20.1965C256.976 20.5295 257.642 20.7673 258.07 20.7673C258.807 20.7673 259.663 20.3392 260.067 19.4354ZM273.144 18.1034L273.548 18.3651C273.168 18.9835 272.55 19.7208 272.074 20.1252C271.123 20.9338 270.077 21.1955 269.15 21.1955C267.771 21.1955 266.32 20.6008 265.417 19.5781C264.585 18.6267 264.133 17.1996 264.133 15.9628C264.133 14.5595 264.632 13.2276 265.441 12.2524C266.51 10.9918 267.842 10.5399 269.031 10.5399C270.386 10.5399 271.622 11.1345 272.407 12.1572C273.073 13.0135 273.429 14.2027 273.453 15.3206H266.796V16.938C266.796 18.1272 266.938 19.1262 267.438 19.816C267.866 20.3868 268.531 20.7673 269.34 20.7673C270.101 20.7673 271.028 20.3868 271.836 19.6495C272.329 19.1975 272.787 18.6037 273.04 18.251L273.144 18.1034ZM266.796 14.9163H270.98C271.004 14.2265 270.98 12.8946 270.766 12.2286C270.481 11.3486 269.887 10.9442 268.959 10.9442C268.056 10.9442 267.438 11.3486 267.081 12.0383C266.82 12.5616 266.796 13.0373 266.796 13.4178V14.9163ZM276.045 20.5295V11.2059H274.547V10.8015H276.924C277.352 10.8015 277.588 10.8015 278.168 10.7148L278.375 10.6826V12.7994C278.589 12.3475 278.945 11.7767 279.255 11.4675L279.297 11.4237C279.691 11.0264 280.455 10.5399 281.418 10.5399C282.06 10.5399 282.464 10.7302 282.726 10.9204C283.106 11.2059 283.296 11.6102 283.296 12.1572C283.296 12.4664 283.225 12.7519 282.987 13.0135C282.726 13.2989 282.417 13.4178 282.108 13.4178C281.394 13.4178 280.895 12.9421 280.895 12.3237C280.895 12.2524 280.895 12.1572 280.919 12.0859C280.919 12.0502 280.925 12.0205 280.931 11.9908L280.931 11.9907C280.937 11.961 280.943 11.9313 280.943 11.8956C280.943 11.6578 280.752 11.4437 280.372 11.4437C279.992 11.4437 279.564 11.7053 279.183 12.181C278.422 13.1562 278.375 14.2027 278.375 14.6546V20.5295H279.873V20.9338H274.547V20.5295H276.045ZM288.218 10.8015V6.61538L285.888 7.44785V10.8015H283.938V11.2059H285.888L285.889 18.582C285.895 19.332 285.981 20.0528 286.483 20.5771L286.523 20.6212C286.722 20.8263 287.213 21.1955 288.052 21.1955C288.622 21.1955 289.264 21.029 289.811 20.7673C290.285 20.5406 290.634 20.296 290.889 20.08L291 19.9824L290.762 19.697C290.579 19.9166 290.396 20.0235 290.203 20.1153L290.025 20.1965C289.675 20.3408 289.503 20.3779 289.262 20.3852L289.145 20.3868C288.979 20.3868 288.67 20.3868 288.456 20.1252C288.291 19.919 288.233 19.4449 288.221 19.1363L288.218 19.0073V11.2059H290.287V10.8015H288.218ZM228.254 20.6606V16.3077H230.961V20.6606L234.468 20.6603C234.933 20.6547 236.537 20.5534 237.56 19.1069C237.943 18.5775 238.263 17.7687 238.521 16.4201L238.575 16.1227H239.155L238.647 21.1538H226.393V20.6606H228.254ZM234.369 11.4615H224.798V12.2692H234.369V11.4615ZM225.595 13.0769H235.964V13.8846H225.595V13.0769ZM234.369 14.6923H224V15.5H234.369V14.6923Z" fill="#96A0AA"/>
<g clip-path="url(#clip0_4621:8220)">
<path fill-rule="evenodd" clip-rule="evenodd" d="M119.795 2.41329L120.754 1.68271C120.889 1.57896 120.859 1.37578 120.704 1.36714L119.627 1.29797C119.562 1.29364 119.511 1.25042 119.496 1.18557L119.264 0.113478C119.23 -0.0378259 119.028 -0.0378259 118.946 0.113478L118.38 1.18125C118.345 1.24609 118.281 1.28932 118.214 1.29364L117.112 1.36281C116.954 1.37146 116.86 1.57464 116.963 1.67839L117.695 2.40464C117.738 2.44787 117.751 2.52136 117.724 2.58621L117.275 3.69721C117.214 3.85284 117.355 3.9782 117.5 3.89174L118.515 3.27356C118.579 3.23465 118.649 3.23465 118.697 3.27356L119.523 3.89174C119.642 3.9782 119.822 3.85284 119.809 3.69721L119.706 2.59053C119.703 2.52569 119.735 2.45652 119.795 2.41329ZM113.635 3.68225L114.594 2.95167C114.729 2.84792 114.699 2.64474 114.544 2.6361L113.467 2.56693C113.402 2.56261 113.351 2.51938 113.336 2.45453L113.104 1.38244C113.07 1.23114 112.868 1.23114 112.786 1.38244L112.22 2.45021C112.185 2.51506 112.121 2.55828 112.054 2.56261L110.952 2.63178C110.794 2.64042 110.7 2.8436 110.803 2.94735L111.535 3.67361C111.578 3.71684 111.591 3.79033 111.564 3.85517L111.115 4.96617C111.054 5.1218 111.195 5.24716 111.34 5.16071L112.355 4.54252C112.419 4.50362 112.489 4.50362 112.537 4.54252L113.363 5.16071C113.482 5.24716 113.662 5.1218 113.649 4.96617L113.546 3.8595C113.543 3.79465 113.575 3.72548 113.635 3.68225ZM126.914 3.36271L125.955 4.09329C125.895 4.13652 125.863 4.20569 125.866 4.27053L125.969 5.37721C125.982 5.53284 125.802 5.6582 125.683 5.57174L124.857 4.95356C124.809 4.91465 124.739 4.91465 124.675 4.95356L123.66 5.57174C123.515 5.6582 123.374 5.53284 123.435 5.37721L123.884 4.26621C123.911 4.20136 123.898 4.12787 123.855 4.08464L123.123 3.35839C123.02 3.25464 123.114 3.05146 123.272 3.04281L124.374 2.97364C124.441 2.96932 124.505 2.92609 124.54 2.86125L125.106 1.79348C125.188 1.64217 125.39 1.64217 125.424 1.79348L125.656 2.86557C125.671 2.93042 125.722 2.97364 125.787 2.97797L126.864 3.04713C127.019 3.05578 127.049 3.25896 126.914 3.36271ZM129.875 8.57329L130.834 7.84271C130.969 7.73896 130.939 7.53578 130.784 7.52713L129.707 7.45797C129.642 7.45364 129.591 7.41041 129.576 7.34557L129.344 6.27348C129.31 6.12217 129.108 6.12217 129.026 6.27348L128.46 7.34125C128.425 7.40609 128.361 7.44932 128.294 7.45364L127.192 7.52281C127.034 7.53146 126.94 7.73464 127.043 7.83839L127.775 8.56464C127.818 8.60787 127.831 8.68136 127.804 8.74621L127.355 9.85721C127.294 10.0128 127.435 10.1382 127.58 10.0517L128.595 9.43356C128.659 9.39465 128.729 9.39465 128.777 9.43356L129.603 10.0517C129.722 10.1382 129.902 10.0128 129.889 9.85721L129.786 8.75053C129.783 8.68569 129.815 8.61652 129.875 8.57329ZM131.394 14.0027L130.435 14.7333C130.375 14.7765 130.343 14.8457 130.346 14.9105L130.449 16.0172C130.462 16.1728 130.282 16.2982 130.163 16.2117L129.337 15.5936C129.289 15.5547 129.219 15.5547 129.155 15.5936L128.14 16.2117C127.995 16.2982 127.854 16.1728 127.915 16.0172L128.364 14.9062C128.391 14.8414 128.378 14.7679 128.335 14.7246L127.603 13.9984C127.5 13.8946 127.594 13.6915 127.752 13.6828L128.854 13.6136C128.921 13.6093 128.985 13.5661 129.02 13.5012L129.586 12.4335C129.668 12.2822 129.87 12.2822 129.904 12.4335L130.136 13.5056C130.151 13.5704 130.202 13.6136 130.267 13.618L131.344 13.6871C131.499 13.6958 131.529 13.899 131.394 14.0027ZM128.195 20.8933L129.154 20.1627C129.289 20.059 129.259 19.8558 129.104 19.8471L128.027 19.778C127.962 19.7736 127.911 19.7304 127.896 19.6656L127.664 18.5935C127.63 18.4422 127.428 18.4422 127.346 18.5935L126.78 19.6612C126.745 19.7261 126.681 19.7693 126.614 19.7736L125.512 19.8428C125.354 19.8515 125.26 20.0546 125.363 20.1584L126.095 20.8846C126.138 20.9279 126.151 21.0014 126.124 21.0662L125.675 22.1772C125.614 22.3328 125.755 22.4582 125.9 22.3717L126.915 21.7536C126.979 21.7147 127.049 21.7147 127.097 21.7536L127.923 22.3717C128.042 22.4582 128.222 22.3328 128.209 22.1772L128.106 21.0705C128.103 21.0057 128.135 20.9365 128.195 20.8933ZM124.114 24.6427L123.155 25.3733C123.095 25.4165 123.063 25.4857 123.066 25.5505L123.169 26.6572C123.182 26.8128 123.002 26.9382 122.883 26.8517L122.057 26.2336C122.009 26.1947 121.939 26.1947 121.875 26.2336L120.86 26.8517C120.715 26.9382 120.574 26.8128 120.635 26.6572L121.084 25.5462C121.111 25.4814 121.098 25.4079 121.055 25.3646L120.323 24.6384C120.22 24.5346 120.314 24.3315 120.472 24.3228L121.574 24.2536C121.641 24.2493 121.705 24.2061 121.74 24.1412L122.306 23.0735C122.388 22.9222 122.59 22.9222 122.624 23.0735L122.856 24.1456C122.871 24.2104 122.922 24.2536 122.987 24.258L124.064 24.3271C124.219 24.3358 124.249 24.539 124.114 24.6427ZM116.995 27.0533L117.954 26.3227C118.089 26.219 118.059 26.0158 117.904 26.0071L116.827 25.938C116.762 25.9336 116.711 25.8904 116.696 25.8256L116.464 24.7535C116.43 24.6022 116.228 24.6022 116.146 24.7535L115.58 25.8212C115.545 25.8861 115.481 25.9293 115.414 25.9336L114.312 26.0028C114.154 26.0115 114.06 26.2146 114.163 26.3184L114.895 27.0446C114.938 27.0879 114.951 27.1614 114.924 27.2262L114.475 28.3372C114.414 28.4928 114.555 28.6182 114.7 28.5317L115.715 27.9136C115.779 27.8747 115.849 27.8747 115.897 27.9136L116.723 28.5317C116.842 28.6182 117.022 28.4928 117.009 28.3372L116.906 27.2305C116.903 27.1657 116.935 27.0965 116.995 27.0533ZM111.794 24.6427L110.835 25.3733C110.775 25.4165 110.743 25.4857 110.746 25.5505L110.849 26.6572C110.862 26.8128 110.682 26.9382 110.563 26.8517L109.737 26.2336C109.689 26.1947 109.619 26.1947 109.555 26.2336L108.54 26.8517C108.395 26.9382 108.254 26.8128 108.315 26.6572L108.764 25.5462C108.791 25.4814 108.778 25.4079 108.735 25.3646L108.003 24.6384C107.9 24.5346 107.994 24.3315 108.152 24.3228L109.254 24.2536C109.321 24.2493 109.385 24.2061 109.42 24.1412L109.986 23.0735C110.068 22.9222 110.27 22.9222 110.304 23.0735L110.536 24.1456C110.551 24.2104 110.602 24.2536 110.667 24.258L111.744 24.3271C111.899 24.3358 111.929 24.539 111.794 24.6427Z" fill="#96A0AA"/>
<path d="M149.107 2.4312C149.209 2.4312 149.298 2.45976 149.374 2.51688C149.45 2.574 149.504 2.65016 149.536 2.74536L151.525 9H150.307L149.745 7.12456H147.298L146.746 9H145.528L147.517 2.74536C147.543 2.65016 147.593 2.574 147.67 2.51688C147.752 2.45976 147.844 2.4312 147.946 2.4312H149.107ZM148.241 3.93536L147.574 6.1916H149.469L148.802 3.93536C148.777 3.84016 148.752 3.74179 148.726 3.64024C148.701 3.53235 148.679 3.4308 148.66 3.3356H148.393C148.374 3.4308 148.352 3.53235 148.326 3.64024C148.301 3.74179 148.273 3.84016 148.241 3.93536ZM153.902 4.21144C154.226 4.21144 154.581 4.22731 154.968 4.25904C155.362 4.28443 155.701 4.32251 155.987 4.37328L155.911 5.12536C155.612 5.11901 155.311 5.11267 155.006 5.10632C154.702 5.09363 154.403 5.08728 154.111 5.08728C153.845 5.08728 153.638 5.09363 153.492 5.10632C153.346 5.11901 153.242 5.15709 153.178 5.22056C153.121 5.28403 153.093 5.39192 153.093 5.54424C153.093 5.73464 153.143 5.8584 153.245 5.91552C153.346 5.97264 153.512 6.02976 153.74 6.08688L155.016 6.382C155.396 6.4772 155.679 6.62317 155.863 6.81992C156.047 7.01032 156.139 7.30544 156.139 7.70528C156.139 8.09243 156.066 8.38755 155.92 8.59064C155.774 8.78739 155.549 8.92384 155.244 9C154.94 9.06981 154.549 9.10472 154.073 9.10472C153.883 9.10472 153.607 9.0952 153.245 9.07616C152.89 9.06347 152.496 9.02221 152.064 8.9524L152.141 8.20032C152.337 8.20667 152.579 8.21301 152.864 8.21936C153.156 8.22571 153.458 8.22571 153.769 8.21936C154.099 8.21936 154.356 8.20984 154.54 8.1908C154.724 8.16541 154.851 8.11781 154.92 8.048C154.99 7.97819 155.025 7.87029 155.025 7.72432C155.025 7.54661 154.965 7.4292 154.844 7.37208C154.73 7.30861 154.559 7.24832 154.33 7.1912L153.083 6.88656C152.664 6.77867 152.372 6.62 152.207 6.41056C152.049 6.19477 151.969 5.89648 151.969 5.51568C151.969 5.00795 152.118 4.66205 152.417 4.478C152.715 4.29395 153.21 4.20509 153.902 4.21144ZM158.866 4.21144C159.19 4.21144 159.545 4.22731 159.933 4.25904C160.326 4.28443 160.666 4.32251 160.951 4.37328L160.875 5.12536C160.577 5.11901 160.275 5.11267 159.971 5.10632C159.666 5.09363 159.368 5.08728 159.076 5.08728C158.809 5.08728 158.603 5.09363 158.457 5.10632C158.311 5.11901 158.206 5.15709 158.143 5.22056C158.086 5.28403 158.057 5.39192 158.057 5.54424C158.057 5.73464 158.108 5.8584 158.209 5.91552C158.311 5.97264 158.476 6.02976 158.705 6.08688L159.98 6.382C160.361 6.4772 160.643 6.62317 160.827 6.81992C161.012 7.01032 161.104 7.30544 161.104 7.70528C161.104 8.09243 161.031 8.38755 160.885 8.59064C160.739 8.78739 160.513 8.92384 160.209 9C159.904 9.06981 159.514 9.10472 159.038 9.10472C158.847 9.10472 158.571 9.0952 158.209 9.07616C157.854 9.06347 157.461 9.02221 157.029 8.9524L157.105 8.20032C157.302 8.20667 157.543 8.21301 157.829 8.21936C158.121 8.22571 158.422 8.22571 158.733 8.21936C159.063 8.21936 159.32 8.20984 159.504 8.1908C159.688 8.16541 159.815 8.11781 159.885 8.048C159.955 7.97819 159.99 7.87029 159.99 7.72432C159.99 7.54661 159.929 7.4292 159.809 7.37208C159.695 7.30861 159.523 7.24832 159.295 7.1912L158.048 6.88656C157.629 6.77867 157.337 6.62 157.172 6.41056C157.013 6.19477 156.934 5.89648 156.934 5.51568C156.934 5.00795 157.083 4.66205 157.381 4.478C157.68 4.29395 158.175 4.20509 158.866 4.21144ZM164.259 4.21144C164.83 4.21144 165.284 4.29077 165.621 4.44944C165.957 4.60811 166.201 4.86832 166.354 5.23008C166.506 5.59184 166.582 6.07101 166.582 6.6676C166.582 7.26419 166.506 7.74336 166.354 8.10512C166.201 8.46688 165.957 8.72709 165.621 8.88576C165.284 9.04443 164.83 9.12376 164.259 9.12376C163.694 9.12376 163.241 9.04443 162.898 8.88576C162.562 8.72709 162.317 8.46688 162.165 8.10512C162.019 7.74336 161.946 7.26419 161.946 6.6676C161.946 6.07101 162.019 5.59184 162.165 5.23008C162.317 4.86832 162.562 4.60811 162.898 4.44944C163.241 4.29077 163.694 4.21144 164.259 4.21144ZM164.259 5.08728C163.98 5.08728 163.758 5.13488 163.593 5.23008C163.434 5.31893 163.32 5.4776 163.25 5.70608C163.18 5.93456 163.145 6.25507 163.145 6.6676C163.145 7.08013 163.18 7.40064 163.25 7.62912C163.32 7.8576 163.434 8.01627 163.593 8.10512C163.758 8.19397 163.98 8.2384 164.259 8.2384C164.545 8.2384 164.767 8.19397 164.926 8.10512C165.091 8.01627 165.208 7.8576 165.278 7.62912C165.348 7.40064 165.383 7.08013 165.383 6.6676C165.383 6.25507 165.348 5.93456 165.278 5.70608C165.208 5.4776 165.091 5.31893 164.926 5.23008C164.767 5.13488 164.545 5.08728 164.259 5.08728ZM169.763 4.21144C169.991 4.21144 170.261 4.23048 170.572 4.26856C170.883 4.30029 171.159 4.36693 171.4 4.46848L171.267 5.192C171.032 5.17931 170.797 5.16979 170.562 5.16344C170.334 5.15709 170.134 5.15392 169.963 5.15392C169.639 5.15392 169.382 5.19835 169.191 5.2872C169.007 5.37605 168.874 5.52837 168.792 5.74416C168.709 5.95995 168.668 6.26459 168.668 6.65808C168.668 7.05157 168.709 7.35939 168.792 7.58152C168.874 7.79731 169.007 7.94963 169.191 8.03848C169.382 8.12733 169.639 8.17176 169.963 8.17176C170.108 8.17176 170.315 8.16541 170.581 8.15272C170.854 8.14003 171.118 8.11781 171.371 8.08608L171.486 8.82864C171.238 8.93019 170.962 9.00317 170.657 9.0476C170.353 9.09203 170.051 9.11424 169.753 9.11424C169.195 9.11424 168.747 9.03491 168.411 8.87624C168.074 8.71757 167.83 8.46053 167.678 8.10512C167.532 7.74336 167.459 7.26101 167.459 6.65808C167.459 6.05515 167.532 5.57597 167.678 5.22056C167.83 4.8588 168.074 4.60176 168.411 4.44944C168.753 4.29077 169.204 4.21144 169.763 4.21144ZM173.295 2.29792C173.523 2.29792 173.637 2.41216 173.637 2.64064V3.17376C173.637 3.40224 173.523 3.51648 173.295 3.51648H172.78C172.552 3.51648 172.438 3.40224 172.438 3.17376V2.64064C172.438 2.41216 172.552 2.29792 172.78 2.29792H173.295ZM173.609 4.32568V9H172.466V4.32568H173.609ZM177.29 4.21144C177.848 4.21144 178.277 4.32885 178.575 4.56368C178.873 4.79216 179.022 5.21421 179.022 5.82984V9H178.109L177.985 8.2384C177.871 8.36533 177.725 8.49544 177.547 8.62872C177.369 8.762 177.163 8.87307 176.928 8.96192C176.7 9.05077 176.443 9.0952 176.157 9.0952C175.732 9.0952 175.379 8.98413 175.1 8.762C174.827 8.53987 174.691 8.21619 174.691 7.79096V7.29592C174.691 6.92781 174.811 6.64221 175.053 6.43912C175.3 6.22968 175.636 6.12496 176.062 6.12496H177.861V5.82032C177.861 5.5728 177.804 5.39509 177.69 5.2872C177.575 5.17296 177.356 5.11584 177.033 5.11584C176.792 5.11584 176.487 5.12536 176.119 5.1444C175.757 5.16344 175.392 5.18883 175.024 5.22056L174.919 4.4304C175.141 4.39232 175.392 4.35741 175.671 4.32568C175.951 4.2876 176.23 4.25904 176.509 4.24C176.795 4.22096 177.055 4.21144 177.29 4.21144ZM175.843 7.63864C175.843 8.01944 176.052 8.20984 176.471 8.20984C176.674 8.21619 176.899 8.17176 177.147 8.07656C177.401 7.98136 177.639 7.84491 177.861 7.6672V6.83896H176.376C176.179 6.84531 176.04 6.89608 175.957 6.99128C175.881 7.08648 175.843 7.21659 175.843 7.3816V7.63864ZM183.207 4.32568V5.12536H181.817V7.59104C181.817 7.78779 181.858 7.92741 181.941 8.00992C182.03 8.09243 182.179 8.13368 182.388 8.13368H183.036L183.159 8.94288C183.051 8.97461 182.921 9.00317 182.769 9.02856C182.617 9.05395 182.464 9.06981 182.312 9.07616C182.166 9.08885 182.045 9.0952 181.95 9.0952C181.538 9.0952 181.22 8.98731 180.998 8.77152C180.776 8.54939 180.665 8.23205 180.665 7.81952V5.12536H179.837V4.37328L180.665 4.3352V2.99288H181.817V4.32568H183.207ZM184.934 2.29792C185.163 2.29792 185.277 2.41216 185.277 2.64064V3.17376C185.277 3.40224 185.163 3.51648 184.934 3.51648H184.42C184.192 3.51648 184.077 3.40224 184.077 3.17376V2.64064C184.077 2.41216 184.192 2.29792 184.42 2.29792H184.934ZM185.248 4.32568V9H184.106V4.32568H185.248ZM188.691 4.21144C189.263 4.21144 189.716 4.29077 190.053 4.44944C190.389 4.60811 190.634 4.86832 190.786 5.23008C190.938 5.59184 191.014 6.07101 191.014 6.6676C191.014 7.26419 190.938 7.74336 190.786 8.10512C190.634 8.46688 190.389 8.72709 190.053 8.88576C189.716 9.04443 189.263 9.12376 188.691 9.12376C188.127 9.12376 187.673 9.04443 187.33 8.88576C186.994 8.72709 186.749 8.46688 186.597 8.10512C186.451 7.74336 186.378 7.26419 186.378 6.6676C186.378 6.07101 186.451 5.59184 186.597 5.23008C186.749 4.86832 186.994 4.60811 187.33 4.44944C187.673 4.29077 188.127 4.21144 188.691 4.21144ZM188.691 5.08728C188.412 5.08728 188.19 5.13488 188.025 5.23008C187.866 5.31893 187.752 5.4776 187.682 5.70608C187.613 5.93456 187.578 6.25507 187.578 6.6676C187.578 7.08013 187.613 7.40064 187.682 7.62912C187.752 7.8576 187.866 8.01627 188.025 8.10512C188.19 8.19397 188.412 8.2384 188.691 8.2384C188.977 8.2384 189.199 8.19397 189.358 8.10512C189.523 8.01627 189.64 7.8576 189.71 7.62912C189.78 7.40064 189.815 7.08013 189.815 6.6676C189.815 6.25507 189.78 5.93456 189.71 5.70608C189.64 5.4776 189.523 5.31893 189.358 5.23008C189.199 5.13488 188.977 5.08728 188.691 5.08728ZM193.043 4.32568L193.138 5.0492C193.474 4.77629 193.814 4.57003 194.157 4.4304C194.499 4.28443 194.839 4.21144 195.175 4.21144C196.045 4.21144 196.48 4.63984 196.48 5.49664V9H195.328V5.84888C195.328 5.59501 195.283 5.42048 195.194 5.32528C195.106 5.23008 194.956 5.18248 194.747 5.18248C194.525 5.18248 194.3 5.23008 194.071 5.32528C193.843 5.41413 193.57 5.54741 193.252 5.72512V9H192.1V4.32568H193.043ZM148.241 13.2114C148.812 13.2114 149.266 13.2908 149.602 13.4494C149.939 13.6081 150.183 13.8683 150.335 14.2301C150.488 14.5918 150.564 15.071 150.564 15.6676C150.564 16.2642 150.488 16.7434 150.335 17.1051C150.183 17.4669 149.939 17.7271 149.602 17.8858C149.266 18.0444 148.812 18.1238 148.241 18.1238C147.676 18.1238 147.222 18.0444 146.879 17.8858C146.543 17.7271 146.299 17.4669 146.146 17.1051C146 16.7434 145.927 16.2642 145.927 15.6676C145.927 15.071 146 14.5918 146.146 14.2301C146.299 13.8683 146.543 13.6081 146.879 13.4494C147.222 13.2908 147.676 13.2114 148.241 13.2114ZM148.241 14.0873C147.962 14.0873 147.739 14.1349 147.574 14.2301C147.416 14.3189 147.301 14.4776 147.232 14.7061C147.162 14.9346 147.127 15.2551 147.127 15.6676C147.127 16.0801 147.162 16.4006 147.232 16.6291C147.301 16.8576 147.416 17.0163 147.574 17.1051C147.739 17.194 147.962 17.2384 148.241 17.2384C148.526 17.2384 148.749 17.194 148.907 17.1051C149.072 17.0163 149.19 16.8576 149.259 16.6291C149.329 16.4006 149.364 16.0801 149.364 15.6676C149.364 15.2551 149.329 14.9346 149.259 14.7061C149.19 14.4776 149.072 14.3189 148.907 14.2301C148.749 14.1349 148.526 14.0873 148.241 14.0873ZM154.563 13.3257V14.1254H153.173V18H152.021V14.1254H151.193V13.3733L152.021 13.3257V12.5736C152.021 12.1357 152.129 11.7898 152.345 11.5359C152.567 11.2821 152.948 11.1551 153.487 11.1551C153.595 11.1551 153.735 11.1583 153.906 11.1646C154.084 11.171 154.265 11.1805 154.449 11.1932C154.633 11.2059 154.792 11.2218 154.925 11.2408L154.82 12.0119H153.897C153.63 12.0119 153.443 12.0659 153.335 12.1738C153.227 12.2817 153.173 12.4625 153.173 12.7164V13.3257H154.563ZM158.673 11.4122C159.168 11.4122 159.676 11.4153 160.196 11.4217C160.723 11.428 161.212 11.4502 161.663 11.4883L161.605 12.3737H159.035C158.686 12.3737 158.511 12.5577 158.511 12.9258V14.1254H161.244V15.0012H158.511V16.5054C158.511 16.8735 158.686 17.0575 159.035 17.0575H161.605L161.663 17.9429C161.212 17.981 160.723 18.0032 160.196 18.0095C159.676 18.0159 159.168 18.019 158.673 18.019C158.267 18.019 157.94 17.908 157.693 17.6858C157.452 17.4574 157.328 17.1527 157.321 16.7719V12.6593C157.328 12.2785 157.452 11.977 157.693 11.7549C157.94 11.5264 158.267 11.4122 158.673 11.4122ZM163.855 13.3257V16.4863C163.849 16.7275 163.893 16.8989 163.988 17.0004C164.09 17.0956 164.252 17.1432 164.474 17.1432C164.683 17.1432 164.889 17.1019 165.093 17.0194C165.302 16.9369 165.549 16.8132 165.835 16.6482V13.3257H166.987V18H166.073L165.978 17.3241C165.642 17.5906 165.311 17.7906 164.988 17.9238C164.67 18.0571 164.344 18.1238 164.007 18.1238C163.138 18.1238 162.703 17.6954 162.703 16.8386V13.3257H163.855ZM169.177 13.3257L169.291 14.0492C169.615 13.7763 169.941 13.57 170.271 13.4304C170.602 13.2844 170.922 13.2114 171.233 13.2114H171.461L171.347 14.2777H171.014C170.786 14.2777 170.551 14.3158 170.31 14.3919C170.068 14.4681 169.776 14.576 169.434 14.7156V18H168.282V13.3257H169.177ZM174.253 13.2114C174.825 13.2114 175.278 13.2908 175.615 13.4494C175.951 13.6081 176.196 13.8683 176.348 14.2301C176.5 14.5918 176.576 15.071 176.576 15.6676C176.576 16.2642 176.5 16.7434 176.348 17.1051C176.196 17.4669 175.951 17.7271 175.615 17.8858C175.278 18.0444 174.825 18.1238 174.253 18.1238C173.689 18.1238 173.235 18.0444 172.892 17.8858C172.556 17.7271 172.311 17.4669 172.159 17.1051C172.013 16.7434 171.94 16.2642 171.94 15.6676C171.94 15.071 172.013 14.5918 172.159 14.2301C172.311 13.8683 172.556 13.6081 172.892 13.4494C173.235 13.2908 173.689 13.2114 174.253 13.2114ZM174.253 14.0873C173.974 14.0873 173.752 14.1349 173.587 14.2301C173.428 14.3189 173.314 14.4776 173.244 14.7061C173.175 14.9346 173.14 15.2551 173.14 15.6676C173.14 16.0801 173.175 16.4006 173.244 16.6291C173.314 16.8576 173.428 17.0163 173.587 17.1051C173.752 17.194 173.974 17.2384 174.253 17.2384C174.539 17.2384 174.761 17.194 174.92 17.1051C175.085 17.0163 175.202 16.8576 175.272 16.6291C175.342 16.4006 175.377 16.0801 175.377 15.6676C175.377 15.2551 175.342 14.9346 175.272 14.7061C175.202 14.4776 175.085 14.3189 174.92 14.2301C174.761 14.1349 174.539 14.0873 174.253 14.0873ZM178.595 13.3257L178.691 14.0492C178.906 13.8017 179.186 13.6018 179.528 13.4494C179.871 13.2908 180.217 13.2114 180.566 13.2114C181.15 13.2114 181.566 13.4241 181.813 13.8493C182.067 14.2745 182.194 14.8901 182.194 15.6962C182.194 16.3118 182.127 16.7973 181.994 17.1527C181.867 17.5018 181.673 17.7525 181.413 17.9048C181.153 18.0508 180.823 18.1238 180.423 18.1238C180.131 18.1238 179.846 18.0857 179.566 18.0095C179.287 17.9334 179.027 17.8128 178.786 17.6478C178.798 17.8064 178.805 17.9683 178.805 18.1333C178.811 18.2983 178.814 18.4633 178.814 18.6283V19.8564H177.662V13.3257H178.595ZM180.128 14.1254C179.9 14.1254 179.684 14.173 179.481 14.2682C179.284 14.3634 179.062 14.4998 178.814 14.6775V17.0004C179.043 17.0702 179.249 17.1273 179.433 17.1718C179.623 17.2162 179.83 17.2384 180.052 17.2384C180.28 17.2384 180.464 17.2003 180.604 17.1242C180.744 17.0417 180.845 16.8893 180.909 16.6672C180.972 16.4451 181.004 16.1246 181.004 15.7057C181.004 15.2931 180.975 14.9726 180.918 14.7442C180.861 14.5157 180.766 14.357 180.633 14.2682C180.506 14.173 180.337 14.1254 180.128 14.1254ZM185.381 13.2114C186.136 13.2114 186.679 13.3447 187.009 13.6113C187.339 13.8715 187.507 14.2586 187.514 14.7727C187.514 15.1979 187.412 15.5216 187.209 15.7438C187.006 15.9595 186.666 16.0674 186.19 16.0674H184.315C184.353 16.5181 184.47 16.8163 184.667 16.9623C184.864 17.1083 185.169 17.1813 185.581 17.1813C185.816 17.1813 186.086 17.1718 186.39 17.1527C186.701 17.1337 187 17.1083 187.285 17.0766L187.399 17.8096C187.145 17.9175 186.835 17.9937 186.466 18.0381C186.098 18.0889 185.759 18.1142 185.448 18.1142C184.591 18.1142 183.982 17.9238 183.62 17.543C183.265 17.1559 183.087 16.5307 183.087 15.6676C183.087 15.052 183.163 14.5665 183.315 14.211C183.474 13.8493 183.721 13.5922 184.058 13.4399C184.394 13.2876 184.835 13.2114 185.381 13.2114ZM185.429 14.0682C185.149 14.0682 184.931 14.1031 184.772 14.173C184.613 14.2428 184.496 14.3729 184.42 14.5633C184.343 14.7473 184.302 15.0107 184.296 15.3534H185.876C186.092 15.3534 186.228 15.2963 186.286 15.1821C186.349 15.0678 186.381 14.9282 186.381 14.7632C186.381 14.5093 186.308 14.3316 186.162 14.2301C186.016 14.1222 185.771 14.0682 185.429 14.0682ZM190.9 13.2114C191.459 13.2114 191.887 13.3289 192.186 13.5637C192.484 13.7922 192.633 14.2142 192.633 14.8298V18H191.719L191.595 17.2384C191.481 17.3653 191.335 17.4954 191.157 17.6287C190.98 17.762 190.773 17.8731 190.539 17.9619C190.31 18.0508 190.053 18.0952 189.768 18.0952C189.342 18.0952 188.99 17.9841 188.711 17.762C188.438 17.5399 188.301 17.2162 188.301 16.791V16.2959C188.301 15.9278 188.422 15.6422 188.663 15.4391C188.911 15.2297 189.247 15.125 189.672 15.125H191.472V14.8203C191.472 14.5728 191.414 14.3951 191.3 14.2872C191.186 14.173 190.967 14.1158 190.643 14.1158C190.402 14.1158 190.098 14.1254 189.729 14.1444C189.368 14.1634 189.003 14.1888 188.635 14.2206L188.53 13.4304C188.752 13.3923 189.003 13.3574 189.282 13.3257C189.561 13.2876 189.841 13.259 190.12 13.24C190.405 13.221 190.666 13.2114 190.9 13.2114ZM189.453 16.6386C189.453 17.0194 189.663 17.2098 190.082 17.2098C190.285 17.2162 190.51 17.1718 190.758 17.0766C191.011 16.9814 191.249 16.8449 191.472 16.6672V15.839H189.986C189.79 15.8453 189.65 15.8961 189.568 15.9913C189.491 16.0865 189.453 16.2166 189.453 16.3816V16.6386ZM194.828 13.3257L194.923 14.0492C195.259 13.7763 195.599 13.57 195.942 13.4304C196.284 13.2844 196.624 13.2114 196.96 13.2114C197.83 13.2114 198.265 13.6398 198.265 14.4966V18H197.113V14.8489C197.113 14.595 197.068 14.4205 196.979 14.3253C196.891 14.2301 196.741 14.1825 196.532 14.1825C196.31 14.1825 196.085 14.2301 195.856 14.3253C195.628 14.4141 195.355 14.5474 195.037 14.7251V18H193.885V13.3257H194.828ZM148.545 21.355C149.104 21.355 149.548 21.4058 149.878 21.5074C150.215 21.6026 150.456 21.7739 150.602 22.0214C150.748 22.269 150.821 22.618 150.821 23.0686C150.821 23.5383 150.732 23.8969 150.554 24.1444C150.376 24.3919 150.084 24.5347 149.678 24.5728V24.6109C150.18 24.6553 150.529 24.8267 150.726 25.125C150.929 25.4233 151.03 25.8358 151.03 26.3626C151.03 26.8132 150.954 27.1622 150.802 27.4098C150.656 27.6573 150.421 27.8318 150.097 27.9334C149.78 28.0286 149.364 28.0762 148.85 28.0762C148.444 28.0762 148.092 28.073 147.793 28.0666C147.501 28.0666 147.232 28.0603 146.984 28.0476C146.737 28.0349 146.48 28.019 146.213 28V21.4312C146.448 21.4058 146.676 21.3899 146.898 21.3836C147.127 21.3709 147.371 21.3646 147.632 21.3646C147.892 21.3582 148.196 21.355 148.545 21.355ZM148.488 22.269C148.273 22.269 148.073 22.269 147.889 22.269C147.704 22.269 147.533 22.269 147.374 22.269V24.192H148.593C148.999 24.192 149.282 24.1285 149.44 24.0016C149.599 23.8683 149.678 23.6081 149.678 23.221C149.678 22.9607 149.64 22.764 149.564 22.6307C149.494 22.4911 149.37 22.3959 149.193 22.3451C149.021 22.2943 148.787 22.269 148.488 22.269ZM148.603 25.0012H147.374V27.1622C147.743 27.1622 148.168 27.1622 148.65 27.1622C148.948 27.1622 149.183 27.1369 149.355 27.0861C149.526 27.029 149.647 26.9274 149.716 26.7814C149.793 26.6355 149.831 26.4229 149.831 26.1436C149.831 25.839 149.793 25.6073 149.716 25.4486C149.64 25.2836 149.513 25.1694 149.336 25.1059C149.158 25.0361 148.914 25.0012 148.603 25.0012ZM153.266 23.3257V26.4863C153.259 26.7275 153.304 26.8989 153.399 27.0004C153.501 27.0956 153.662 27.1432 153.885 27.1432C154.094 27.1432 154.3 27.1019 154.503 27.0194C154.713 26.9369 154.96 26.8132 155.246 26.6482V23.3257H156.398V28H155.484L155.389 27.3241C155.052 27.5906 154.722 27.7906 154.399 27.9238C154.081 28.0571 153.754 28.1238 153.418 28.1238C152.549 28.1238 152.114 27.6954 152.114 26.8386V23.3257H153.266ZM159.378 23.2114C159.701 23.2114 160.057 23.2273 160.444 23.259C160.837 23.2844 161.177 23.3225 161.463 23.3733L161.386 24.1254C161.088 24.119 160.787 24.1127 160.482 24.1063C160.177 24.0936 159.879 24.0873 159.587 24.0873C159.321 24.0873 159.114 24.0936 158.968 24.1063C158.822 24.119 158.718 24.1571 158.654 24.2206C158.597 24.284 158.568 24.3919 158.568 24.5442C158.568 24.7346 158.619 24.8584 158.721 24.9155C158.822 24.9726 158.987 25.0298 159.216 25.0869L160.492 25.382C160.872 25.4772 161.155 25.6232 161.339 25.8199C161.523 26.0103 161.615 26.3054 161.615 26.7053C161.615 27.0924 161.542 27.3875 161.396 27.5906C161.25 27.7874 161.025 27.9238 160.72 28C160.415 28.0698 160.025 28.1047 159.549 28.1047C159.359 28.1047 159.083 28.0952 158.721 28.0762C158.365 28.0635 157.972 28.0222 157.54 27.9524L157.616 27.2003C157.813 27.2067 158.054 27.213 158.34 27.2194C158.632 27.2257 158.933 27.2257 159.244 27.2194C159.574 27.2194 159.831 27.2098 160.016 27.1908C160.2 27.1654 160.327 27.1178 160.396 27.048C160.466 26.9782 160.501 26.8703 160.501 26.7243C160.501 26.5466 160.441 26.4292 160.32 26.3721C160.206 26.3086 160.035 26.2483 159.806 26.1912L158.559 25.8866C158.14 25.7787 157.848 25.62 157.683 25.4106C157.524 25.1948 157.445 24.8965 157.445 24.5157C157.445 24.0079 157.594 23.6621 157.893 23.478C158.191 23.2939 158.686 23.2051 159.378 23.2114ZM163.524 21.2979C163.752 21.2979 163.866 21.4122 163.866 21.6406V22.1738C163.866 22.4022 163.752 22.5165 163.524 22.5165H163.009C162.781 22.5165 162.667 22.4022 162.667 22.1738V21.6406C162.667 21.4122 162.781 21.2979 163.009 21.2979H163.524ZM163.838 23.3257V28H162.695V23.3257H163.838ZM166.11 23.3257L166.205 24.0492C166.541 23.7763 166.881 23.57 167.224 23.4304C167.566 23.2844 167.906 23.2114 168.242 23.2114C169.112 23.2114 169.547 23.6398 169.547 24.4966V28H168.395V24.8489C168.395 24.595 168.35 24.4205 168.261 24.3253C168.172 24.2301 168.023 24.1825 167.814 24.1825C167.592 24.1825 167.366 24.2301 167.138 24.3253C166.909 24.4141 166.637 24.5474 166.319 24.7251V28H165.167V23.3257H166.11ZM172.895 23.2114C173.651 23.2114 174.193 23.3447 174.523 23.6113C174.853 23.8715 175.022 24.2586 175.028 24.7727C175.028 25.1979 174.926 25.5216 174.723 25.7438C174.52 25.9595 174.181 26.0674 173.705 26.0674H171.829C171.867 26.5181 171.985 26.8163 172.181 26.9623C172.378 27.1083 172.683 27.1813 173.095 27.1813C173.33 27.1813 173.6 27.1718 173.905 27.1527C174.216 27.1337 174.514 27.1083 174.799 27.0766L174.914 27.8096C174.66 27.9175 174.349 27.9937 173.981 28.0381C173.613 28.0889 173.273 28.1142 172.962 28.1142C172.105 28.1142 171.496 27.9238 171.134 27.543C170.779 27.1559 170.601 26.5307 170.601 25.6676C170.601 25.052 170.677 24.5665 170.83 24.211C170.988 23.8493 171.236 23.5922 171.572 23.4399C171.909 23.2876 172.35 23.2114 172.895 23.2114ZM172.943 24.0682C172.664 24.0682 172.445 24.1031 172.286 24.173C172.127 24.2428 172.01 24.3729 171.934 24.5633C171.858 24.7473 171.816 25.0107 171.81 25.3534H173.39C173.606 25.3534 173.743 25.2963 173.8 25.1821C173.863 25.0678 173.895 24.9282 173.895 24.7632C173.895 24.5093 173.822 24.3316 173.676 24.2301C173.53 24.1222 173.286 24.0682 172.943 24.0682ZM177.748 23.2114C178.072 23.2114 178.427 23.2273 178.815 23.259C179.208 23.2844 179.548 23.3225 179.833 23.3733L179.757 24.1254C179.459 24.119 179.157 24.1127 178.853 24.1063C178.548 24.0936 178.25 24.0873 177.958 24.0873C177.691 24.0873 177.485 24.0936 177.339 24.1063C177.193 24.119 177.088 24.1571 177.025 24.2206C176.968 24.284 176.939 24.3919 176.939 24.5442C176.939 24.7346 176.99 24.8584 177.091 24.9155C177.193 24.9726 177.358 25.0298 177.586 25.0869L178.862 25.382C179.243 25.4772 179.525 25.6232 179.709 25.8199C179.893 26.0103 179.986 26.3054 179.986 26.7053C179.986 27.0924 179.913 27.3875 179.767 27.5906C179.621 27.7874 179.395 27.9238 179.091 28C178.786 28.0698 178.396 28.1047 177.92 28.1047C177.729 28.1047 177.453 28.0952 177.091 28.0762C176.736 28.0635 176.343 28.0222 175.911 27.9524L175.987 27.2003C176.184 27.2067 176.425 27.213 176.711 27.2194C177.003 27.2257 177.304 27.2257 177.615 27.2194C177.945 27.2194 178.202 27.2098 178.386 27.1908C178.57 27.1654 178.697 27.1178 178.767 27.048C178.837 26.9782 178.872 26.8703 178.872 26.7243C178.872 26.5466 178.811 26.4292 178.691 26.3721C178.577 26.3086 178.405 26.2483 178.177 26.1912L176.93 25.8866C176.511 25.7787 176.219 25.62 176.054 25.4106C175.895 25.1948 175.816 24.8965 175.816 24.5157C175.816 24.0079 175.965 23.6621 176.263 23.478C176.561 23.2939 177.057 23.2051 177.748 23.2114ZM182.713 23.2114C183.037 23.2114 183.392 23.2273 183.779 23.259C184.173 23.2844 184.512 23.3225 184.798 23.3733L184.722 24.1254C184.423 24.119 184.122 24.1127 183.817 24.1063C183.513 24.0936 183.214 24.0873 182.922 24.0873C182.656 24.0873 182.449 24.0936 182.303 24.1063C182.158 24.119 182.053 24.1571 181.989 24.2206C181.932 24.284 181.904 24.3919 181.904 24.5442C181.904 24.7346 181.954 24.8584 182.056 24.9155C182.158 24.9726 182.323 25.0298 182.551 25.0869L183.827 25.382C184.207 25.4772 184.49 25.6232 184.674 25.8199C184.858 26.0103 184.95 26.3054 184.95 26.7053C184.95 27.0924 184.877 27.3875 184.731 27.5906C184.585 27.7874 184.36 27.9238 184.055 28C183.751 28.0698 183.36 28.1047 182.884 28.1047C182.694 28.1047 182.418 28.0952 182.056 28.0762C181.701 28.0635 181.307 28.0222 180.875 27.9524L180.952 27.2003C181.148 27.2067 181.39 27.213 181.675 27.2194C181.967 27.2257 182.269 27.2257 182.58 27.2194C182.91 27.2194 183.167 27.2098 183.351 27.1908C183.535 27.1654 183.662 27.1178 183.731 27.048C183.801 26.9782 183.836 26.8703 183.836 26.7243C183.836 26.5466 183.776 26.4292 183.655 26.3721C183.541 26.3086 183.37 26.2483 183.141 26.1912L181.894 25.8866C181.475 25.7787 181.183 25.62 181.018 25.4106C180.86 25.1948 180.78 24.8965 180.78 24.5157C180.78 24.0079 180.929 23.6621 181.228 23.478C181.526 23.2939 182.021 23.2051 182.713 23.2114ZM188.077 23.2114C188.832 23.2114 189.375 23.3447 189.705 23.6113C190.035 23.8715 190.203 24.2586 190.21 24.7727C190.21 25.1979 190.108 25.5216 189.905 25.7438C189.702 25.9595 189.362 26.0674 188.886 26.0674H187.011C187.049 26.5181 187.166 26.8163 187.363 26.9623C187.56 27.1083 187.865 27.1813 188.277 27.1813C188.512 27.1813 188.782 27.1718 189.086 27.1527C189.397 27.1337 189.696 27.1083 189.981 27.0766L190.095 27.8096C189.842 27.9175 189.531 27.9937 189.162 28.0381C188.794 28.0889 188.455 28.1142 188.144 28.1142C187.287 28.1142 186.678 27.9238 186.316 27.543C185.961 27.1559 185.783 26.5307 185.783 25.6676C185.783 25.052 185.859 24.5665 186.011 24.211C186.17 23.8493 186.418 23.5922 186.754 23.4399C187.09 23.2876 187.531 23.2114 188.077 23.2114ZM188.125 24.0682C187.846 24.0682 187.627 24.1031 187.468 24.173C187.309 24.2428 187.192 24.3729 187.116 24.5633C187.04 24.7473 186.998 25.0107 186.992 25.3534H188.572C188.788 25.3534 188.924 25.2963 188.982 25.1821C189.045 25.0678 189.077 24.9282 189.077 24.7632C189.077 24.5093 189.004 24.3316 188.858 24.2301C188.712 24.1222 188.468 24.0682 188.125 24.0682ZM192.93 23.2114C193.254 23.2114 193.609 23.2273 193.996 23.259C194.39 23.2844 194.729 23.3225 195.015 23.3733L194.939 24.1254C194.641 24.119 194.339 24.1127 194.034 24.1063C193.73 24.0936 193.432 24.0873 193.14 24.0873C192.873 24.0873 192.667 24.0936 192.521 24.1063C192.375 24.119 192.27 24.1571 192.207 24.2206C192.149 24.284 192.121 24.3919 192.121 24.5442C192.121 24.7346 192.172 24.8584 192.273 24.9155C192.375 24.9726 192.54 25.0298 192.768 25.0869L194.044 25.382C194.425 25.4772 194.707 25.6232 194.891 25.8199C195.075 26.0103 195.167 26.3054 195.167 26.7053C195.167 27.0924 195.094 27.3875 194.948 27.5906C194.802 27.7874 194.577 27.9238 194.272 28C193.968 28.0698 193.577 28.1047 193.101 28.1047C192.911 28.1047 192.635 28.0952 192.273 28.0762C191.918 28.0635 191.524 28.0222 191.093 27.9524L191.169 27.2003C191.366 27.2067 191.607 27.213 191.892 27.2194C192.184 27.2257 192.486 27.2257 192.797 27.2194C193.127 27.2194 193.384 27.2098 193.568 27.1908C193.752 27.1654 193.879 27.1178 193.949 27.048C194.019 26.9782 194.053 26.8703 194.053 26.7243C194.053 26.5466 193.993 26.4292 193.873 26.3721C193.758 26.3086 193.587 26.2483 193.359 26.1912L192.111 25.8866C191.693 25.7787 191.401 25.62 191.236 25.4106C191.077 25.1948 190.998 24.8965 190.998 24.5157C190.998 24.0079 191.147 23.6621 191.445 23.478C191.743 23.2939 192.238 23.2051 192.93 23.2114Z" fill="#96A0AA"/>
<path d="M104.556 9.65911C104.712 9.65911 104.848 9.7125 104.963 9.81927C105.078 9.91783 105.144 10.041 105.16 10.1889L106.503 18.1599H104.63L104.335 15.93H101.402L100.478 18.1599H98.5195L102.105 10.115C102.211 9.81106 102.437 9.65911 102.782 9.65911H104.556ZM103.103 11.8767L102.006 14.4886H104.137L103.792 11.889C103.776 11.7494 103.764 11.6098 103.756 11.4702C103.747 11.3305 103.743 11.1909 103.743 11.0513H103.386C103.345 11.1745 103.3 11.31 103.25 11.4578C103.201 11.5975 103.152 11.7371 103.103 11.8767ZM111.313 9.62215C111.994 9.62215 112.684 9.63037 113.382 9.64679C114.08 9.65501 114.717 9.68786 115.292 9.74535L115.07 11.1129H111.892C111.645 11.1129 111.464 11.1663 111.349 11.273C111.243 11.3716 111.173 11.54 111.14 11.7782L110.955 13.0841H114.319L114.158 14.39H110.783L110.549 16.0655C110.483 16.4926 110.672 16.7062 111.115 16.7062H114.257L114.22 18.0737C113.653 18.1394 113.029 18.1722 112.347 18.1722C111.674 18.1804 111.033 18.1846 110.425 18.1846C109.76 18.1846 109.276 17.9998 108.972 17.6302C108.668 17.2606 108.557 16.776 108.639 16.1764L109.329 11.2977C109.395 10.7802 109.596 10.3737 109.933 10.078C110.269 9.7741 110.729 9.62215 111.313 9.62215ZM120.912 9.56055C121.626 9.56055 122.197 9.63037 122.624 9.76999C123.059 9.90141 123.359 10.1314 123.524 10.4599C123.696 10.7884 123.741 11.2484 123.659 11.8398C123.577 12.4393 123.409 12.8911 123.154 13.195C122.899 13.4988 122.493 13.6754 121.934 13.7247L121.922 13.7863C122.571 13.8438 123.002 14.0779 123.216 14.4886C123.437 14.891 123.499 15.429 123.4 16.1025C123.318 16.6856 123.162 17.1332 122.932 17.4454C122.702 17.7492 122.374 17.9628 121.947 18.086C121.519 18.201 120.969 18.2585 120.296 18.2585C119.721 18.2585 119.224 18.2544 118.805 18.2462C118.394 18.2462 118.016 18.2379 117.672 18.2215C117.327 18.2051 116.973 18.1846 116.612 18.1599L117.807 9.65911C118.127 9.62626 118.439 9.60573 118.743 9.59751C119.047 9.58109 119.372 9.57287 119.717 9.57287C120.062 9.56466 120.46 9.56055 120.912 9.56055ZM120.85 10.9404C120.579 10.9404 120.329 10.9404 120.099 10.9404C119.869 10.9404 119.655 10.9404 119.458 10.9404L119.15 13.1457H120.468C120.936 13.1457 121.269 13.0676 121.466 12.9116C121.663 12.7555 121.795 12.4393 121.86 11.963C121.918 11.5523 121.873 11.2812 121.725 11.1498C121.577 11.0102 121.285 10.9404 120.85 10.9404ZM120.419 14.3654H118.977L118.632 16.8663C119.027 16.8663 119.466 16.8663 119.951 16.8663C120.312 16.8663 120.6 16.8335 120.813 16.7678C121.027 16.702 121.187 16.5788 121.294 16.3982C121.409 16.2175 121.491 15.9546 121.54 15.6097C121.606 15.1169 121.561 14.7883 121.404 14.6241C121.248 14.4598 120.92 14.3736 120.419 14.3654Z" fill="#96A0AA"/>
</g>
<defs>
<clipPath id="clip0_4621:8220">
<rect width="101" height="29" fill="white" transform="translate(99)"/>
</clipPath>
</defs>
</svg>
